<svg xmlns="http://www.w3.org/2000/svg" viewBox="0 0 50 47" fill="none">
  <defs>
    <linearGradient id="ticketGrad" x1="0" y1="0" x2="1" y2="1">
      <stop offset="0%" stop-color="#EF6B8A"/>
      <stop offset="28%" stop-color="#F69A9A"/>
      <stop offset="50%" stop-color="#F9CD8F"/>
      <stop offset="72%" stop-color="#CCC8A9"/>
      <stop offset="100%" stop-color="#83AE9B"/>
    </linearGradient>
    <clipPath id="ticketClip">
      <path d="M4,3 H46 A3,3 0 0,1 49,6 V16.5 A5,5 0 0,0 49,26.5 V41 A3,3 0 0,1 46,44 H4 A3,3 0 0,1 1,41 V26.5 A5,5 0 0,0 1,16.5 V6 A3,3 0 0,1 4,3 Z"/>
    </clipPath>
  </defs>

  <!-- Ticket shape with gradient -->
  <g clip-path="url(#ticketClip)">
    <rect x="1" y="3" width="48" height="41" fill="url(#ticketGrad)"/>
  </g>

  <!-- Play button triangle -->
  <polygon points="21,15 21,32 34,23.5" fill="rgba(255,255,255,0.92)"/>
</svg>
